<svg xmlns="http://www.w3.org/2000/svg" width="1280" height="760" viewBox="0 0 1280 760" role="img" aria-label="Save management preview">
  <defs>
    <linearGradient id="bg" x1="0" y1="0" x2="1" y2="1">
      <stop offset="0" stop-color="#f8fafc"/>
      <stop offset="1" stop-color="#edf7f0"/>
    </linearGradient>
    <filter id="shadow" x="-20%" y="-20%" width="140%" height="140%">
      <feDropShadow dx="0" dy="18" stdDeviation="18" flood-color="#1b2a38" flood-opacity=".16"/>
    </filter>
    <style>
      .title{font:700 28px "Segoe UI",Arial,sans-serif;fill:#17202a}
      .label{font:700 15px "Segoe UI",Arial,sans-serif;fill:#4d5b68}
      .body{font:600 17px "Segoe UI",Arial,sans-serif;fill:#17202a}
      .muted{font:500 14px "Segoe UI",Arial,sans-serif;fill:#6d7884}
      .small{font:600 12px "Segoe UI",Arial,sans-serif;fill:#6d7884}
    </style>
  </defs>
  <rect width="1280" height="760" fill="url(#bg)"/>
  <rect x="70" y="54" width="1140" height="650" rx="18" fill="#ffffff" filter="url(#shadow)"/>
  <rect x="70" y="54" width="1140" height="54" rx="18" fill="#15232f"/>
  <circle cx="104" cy="81" r="7" fill="#ff6b6b"/>
  <circle cx="128" cy="81" r="7" fill="#ffd166"/>
  <circle cx="152" cy="81" r="7" fill="#06d6a0"/>
  <text x="188" y="88" font-family="Segoe UI,Arial,sans-serif" font-size="16" font-weight="600" fill="#d9e6f2">存档与备份</text>
  <text x="104" y="154" class="title">存档管理</text>
  <text x="104" y="184" class="muted">选择下次加载的农场、创建备份、修复小屋和农场角色槽。</text>
  <rect x="104" y="224" width="510" height="430" rx="12" fill="#ffffff" stroke="#e3e8ef"/>
  <text x="132" y="264" class="label">可加载存档</text>
  <rect x="132" y="296" width="430" height="76" rx="10" fill="#e6f4ea" stroke="#c7ebd2"/>
  <text x="154" y="327" class="body" fill="#157347">mitaowx_439452211</text>
  <text x="154" y="352" class="muted">当前加载 · 春 21 日，第 1 年</text>
  <rect x="132" y="392" width="430" height="76" rx="10" fill="#f8fafb" stroke="#e3e8ef"/>
  <text x="154" y="423" class="body">测试农场_9822</text>
  <text x="154" y="448" class="muted">备用测试存档 · 可切换</text>
  <rect x="132" y="500" width="124" height="34" rx="8" fill="#155eef"/>
  <text x="162" y="522" font-family="Segoe UI,Arial,sans-serif" font-size="14" font-weight="700" fill="#ffffff">创建地图</text>
  <rect x="270" y="500" width="124" height="34" rx="8" fill="#f0f4f8"/>
  <text x="302" y="522" class="small">修复小屋</text>
  <rect x="648" y="224" width="516" height="198" rx="12" fill="#ffffff" stroke="#e3e8ef"/>
  <text x="676" y="264" class="label">自动备份策略</text>
  <text x="676" y="308" class="body">每 6 小时 · 保留 10 份</text>
  <text x="676" y="338" class="muted">恢复前会自动再备份当前状态，避免误覆盖。</text>
  <rect x="676" y="366" width="136" height="34" rx="8" fill="#155eef"/>
  <text x="706" y="388" font-family="Segoe UI,Arial,sans-serif" font-size="14" font-weight="700" fill="#ffffff">立即备份</text>
  <rect x="648" y="456" width="516" height="198" rx="12" fill="#101820"/>
  <text x="676" y="494" font-family="Segoe UI,Arial,sans-serif" font-size="15" font-weight="700" fill="#d9e6f2">最近备份</text>
  <text x="676" y="532" font-family="Cascadia Mono,Consolas,monospace" font-size="14" font-weight="600" fill="#a7f3d0">saves-20260602T084900Z.tar.gz</text>
  <text x="676" y="566" font-family="Cascadia Mono,Consolas,monospace" font-size="14" font-weight="600" fill="#d9e6f2">saves-20260602T024900Z.tar.gz</text>
  <text x="676" y="600" font-family="Cascadia Mono,Consolas,monospace" font-size="14" font-weight="600" fill="#d9e6f2">saves-20260601T204900Z.tar.gz</text>
</svg>
